<svg width="64" height="64" viewBox="0 0 64 64" fill="none" xmlns="http://www.w3.org/2000/svg">
  <defs>
    <linearGradient id="docGradient" x1="0%" y1="0%" x2="100%" y2="100%">
      <stop offset="0%" style="stop-color:#8B5CF6;stop-opacity:1" />
      <stop offset="100%" style="stop-color:#7C3AED;stop-opacity:1" />
    </linearGradient>
    <linearGradient id="questionGradient" x1="0%" y1="0%" x2="100%" y2="100%">
      <stop offset="0%" style="stop-color:#A78BFA;stop-opacity:0.9" />
      <stop offset="100%" style="stop-color:#8B5CF6;stop-opacity:0.7" />
    </linearGradient>
  </defs>
  <!-- Document -->
  <rect x="16" y="8" width="24" height="32" rx="2" fill="url(#docGradient)"/>
  <path d="M32 8h8l-8 8V8z" fill="url(#docGradient)" opacity="0.7"/>
  <!-- Question Mark Bubble -->
  <circle cx="44" cy="36" r="14" fill="url(#questionGradient)" opacity="0.8"/>
  <path d="M44 28c-3.5 0-6 2.5-6 6h3c0-1.5 1-3 3-3s3 1.5 3 3c0 2-3 2-3 4v1h3v-1c0-1.5 3-2 3-4 0-3.5-2.5-6-6-6z" fill="white"/>
  <circle cx="44" cy="44" r="1.5" fill="white"/>
</svg>