<svg width="64" height="64" viewBox="0 0 64 64" fill="none" xmlns="http://www.w3.org/2000/svg">
  <defs>
    <linearGradient id="locationGradient1" x1="0%" y1="0%" x2="100%" y2="100%">
      <stop offset="0%" style="stop-color:#6366F1;stop-opacity:1" />
      <stop offset="100%" style="stop-color:#4F46E5;stop-opacity:1" />
    </linearGradient>
    <linearGradient id="locationGradient2" x1="0%" y1="0%" x2="100%" y2="100%">
      <stop offset="0%" style="stop-color:#A5B4FC;stop-opacity:0.8" />
      <stop offset="100%" style="stop-color:#6366F1;stop-opacity:0.6" />
    </linearGradient>
  </defs>
  <!-- Main Location Pin -->
  <path d="M20 12c-8 0-14 6-14 14 0 10 14 26 14 26s14-16 14-26c0-8-6-14-14-14z" fill="url(#locationGradient1)"/>
  <circle cx="20" cy="26" r="6" fill="white"/>
  <!-- Secondary Location Pin -->
  <path d="M44 20c-6 0-10 4-10 10 0 7 10 18 10 18s10-11 10-18c0-6-4-10-10-10z" fill="url(#locationGradient2)" opacity="0.8"/>
  <circle cx="44" cy="30" r="4" fill="white"/>
</svg>