<svg width="64" height="64" viewBox="0 0 64 64" fill="none" xmlns="http://www.w3.org/2000/svg">
  <defs>
    <linearGradient id="bookGradient" x1="0%" y1="0%" x2="100%" y2="100%">
      <stop offset="0%" style="stop-color:#10B981;stop-opacity:1" />
      <stop offset="100%" style="stop-color:#059669;stop-opacity:1" />
    </linearGradient>
  </defs>
  <!-- Book Cover -->
  <rect x="14" y="10" width="36" height="46" rx="3" fill="url(#bookGradient)" opacity="0.9"/>
  <rect x="16" y="8" width="32" height="48" rx="2" fill="url(#bookGradient)"/>
  <!-- Book Pages -->
  <rect x="20" y="18" width="8" height="1.5" rx="0.75" fill="white" opacity="0.9"/>
  <rect x="20" y="22" width="6" height="1.5" rx="0.75" fill="white" opacity="0.7"/>
  <rect x="32" y="18" width="8" height="1.5" rx="0.75" fill="white" opacity="0.9"/>
  <rect x="32" y="22" width="6" height="1.5" rx="0.75" fill="white" opacity="0.7"/>
  <rect x="20" y="28" width="8" height="1.5" rx="0.75" fill="white" opacity="0.9"/>
  <rect x="20" y="32" width="6" height="1.5" rx="0.75" fill="white" opacity="0.7"/>
  <rect x="32" y="28" width="8" height="1.5" rx="0.75" fill="white" opacity="0.9"/>
  <rect x="32" y="32" width="6" height="1.5" rx="0.75" fill="white" opacity="0.7"/>
  <!-- Book Spine -->
  <rect x="24" y="8" width="1" height="48" fill="#047857" opacity="0.6"/>
</svg>